<svg width="1411" height="188" viewBox="0 0 1411 188" fill="none" xmlns="http://www.w3.org/2000/svg">
<path d="M4.66602 185C2.16602 185 0.916016 183.667 0.916016 181V14C0.916016 11.3333 2.16602 9.99999 4.66602 9.99999H62.166C89.9994 9.99999 111.833 18.25 127.666 34.75C143.499 51.25 151.416 72.1667 151.416 97.5C151.416 122.833 143.499 143.75 127.666 160.25C111.833 176.75 89.9994 185 62.166 185H4.66602ZM44.416 146.5H61.416C76.416 146.5 87.8327 142.333 95.666 134C103.499 125.667 107.416 113.5 107.416 97.5C107.416 81.5 103.499 69.3333 95.666 61C87.8327 52.6667 76.416 48.5 61.416 48.5H44.416V146.5ZM237.959 188C217.959 188 201.626 182 188.959 170C176.292 157.833 169.959 142.25 169.959 123.25C169.959 104.917 175.792 89.75 187.459 77.75C199.292 65.5833 214.626 59.5 233.459 59.5C251.626 59.5 266.042 65.1667 276.709 76.5C287.376 87.8333 292.709 101.75 292.709 118.25C292.709 125.417 291.542 130.833 289.209 134.5C287.042 138 283.042 139.75 277.209 139.75H210.959C215.126 150.083 225.292 155.25 241.459 155.25C251.126 155.25 259.542 153.333 266.709 149.5C268.542 148.667 270.042 149.167 271.209 151L282.709 167C284.042 169 283.626 170.917 281.459 172.75C271.459 182.917 256.959 188 237.959 188ZM210.209 111H255.459C253.292 99.5 246.042 93.75 233.709 93.75C221.042 93.75 213.209 99.5 210.209 111ZM348.9 185C346.734 185 345.234 184 344.4 182L298.65 66.75C297.65 63.9167 298.734 62.5 301.9 62.5H336.65C338.984 62.5 340.567 63.5 341.4 65.5L366.15 136.5L390.65 65.5C391.317 63.5 392.984 62.5 395.65 62.5H430.15C433.317 62.5 434.4 63.9167 433.4 66.75L387.65 182C386.984 184 385.484 185 383.15 185H348.9ZM502.402 185C499.402 185 497.736 184 497.402 182L448.402 14.25C447.569 11.4167 448.569 9.99999 451.402 9.99999H488.652C491.319 9.99999 492.736 11 492.902 13L522.652 125.75L555.152 13C555.819 11 557.319 9.99999 559.652 9.99999H593.402C595.736 9.99999 597.236 11 597.902 13L630.402 125.75L660.152 13C660.652 11 662.069 9.99999 664.402 9.99999H701.652C704.486 9.99999 705.486 11.4167 704.652 14.25L655.652 182C655.319 184 653.652 185 650.652 185H613.652C610.652 185 608.986 184 608.652 182L576.652 64.75L544.402 182C544.069 184 542.402 185 539.402 185H502.402ZM726.283 185C723.617 185 722.283 183.667 722.283 181V66.5C722.283 63.8333 723.617 62.5 726.283 62.5H759.283C761.783 62.5 763.033 63.9167 763.033 66.75L764.283 83.25C768.95 67.4167 777.45 59.5 789.783 59.5C794.783 59.5 798.533 60.5833 801.033 62.75C802.7 63.9167 803.533 65.75 803.533 68.25V95.25C803.533 98.0833 801.783 99.1667 798.283 98.5C794.117 97.6667 791.033 97.25 789.033 97.25C781.367 97.25 775.283 99.5833 770.783 104.25C766.45 108.75 764.283 115.583 764.283 124.75V181C764.283 183.667 762.95 185 760.283 185H726.283ZM873.678 188C857.011 188 843.344 181.917 832.678 169.75C822.011 157.417 816.678 142.083 816.678 123.75C816.678 105.583 822.011 90.3333 832.678 78C843.344 65.6667 857.011 59.5 873.678 59.5C890.011 59.5 902.261 65.1667 910.428 76.5L910.928 66.5C910.928 63.8333 912.261 62.5 914.928 62.5H945.928C948.594 62.5 949.928 63.8333 949.928 66.5V181C949.928 182.167 949.511 183.167 948.678 184C947.844 184.667 946.844 185 945.678 185H914.928C912.261 185 910.928 183.667 910.928 181L910.428 170.75C901.594 182.25 889.344 188 873.678 188ZM864.928 142.75C869.761 147.583 875.844 150 883.178 150C890.511 150 896.511 147.583 901.178 142.75C905.844 137.917 908.178 131.5 908.178 123.5C908.178 115.667 905.844 109.417 901.178 104.75C896.678 99.9167 890.678 97.5 883.178 97.5C875.844 97.5 869.761 99.9167 864.928 104.75C860.094 109.583 857.678 115.917 857.678 123.75C857.678 131.583 860.094 137.917 864.928 142.75ZM1016.25 38.75C1011.92 43.0833 1006.5 45.25 1000 45.25C993.504 45.25 988.087 43.0833 983.754 38.75C979.421 34.4167 977.254 29 977.254 22.5C977.254 16.1667 979.421 10.8333 983.754 6.49999C988.087 2.16666 993.504 -2.38419e-06 1000 -2.38419e-06C1006.5 -2.38419e-06 1011.92 2.16666 1016.25 6.49999C1020.59 10.8333 1022.75 16.1667 1022.75 22.5C1022.75 28.8333 1020.59 34.25 1016.25 38.75ZM982.754 185C980.087 185 978.754 183.667 978.754 181V66.5C978.754 63.8333 980.087 62.5 982.754 62.5H1017.25C1019.92 62.5 1021.25 63.8333 1021.25 66.5V181C1021.25 183.667 1019.92 185 1017.25 185H982.754ZM1101.15 188C1089.15 188 1079.15 184.917 1071.15 178.75C1063.15 172.417 1059.15 162.25 1059.15 148.25V94.75H1043.9C1041.4 94.75 1040.15 93.4167 1040.15 90.75V66.5C1040.15 63.8333 1041.4 62.5 1043.9 62.5H1059.15V34C1059.15 31.3333 1060.49 30 1063.15 30H1097.65C1100.32 30 1101.65 31.3333 1101.65 34V62.5H1119.9C1122.57 62.5 1123.9 63.8333 1123.9 66.5V90.75C1123.9 93.4167 1122.57 94.75 1119.9 94.75H1101.65V143.75C1101.65 146.75 1102.65 149.083 1104.65 150.75C1106.65 152.417 1109.15 153.25 1112.15 153.25C1114.99 153.25 1117.57 153.167 1119.9 153C1122.74 153 1124.15 154.25 1124.15 156.75V179.75C1124.15 182.583 1121.74 184.667 1116.9 186C1112.24 187.333 1106.99 188 1101.15 188ZM1221.88 59.5C1234.88 59.5 1245.46 64.0833 1253.63 73.25C1261.96 82.4167 1266.13 94.75 1266.13 110.25V181C1266.13 182.167 1265.71 183.167 1264.88 184C1264.05 184.667 1263.05 185 1261.88 185H1228.13C1225.46 185 1224.13 183.667 1224.13 181V120.75C1224.13 105.583 1217.96 98 1205.63 98C1193.13 98 1186.88 105.583 1186.88 120.75V181C1186.88 183.667 1185.55 185 1182.88 185H1148.88C1146.21 185 1144.88 183.667 1144.88 181V10.25C1144.88 7.58332 1146.21 6.24999 1148.88 6.24999H1182.88C1185.55 6.24999 1186.88 7.58332 1186.88 10.25V80.5C1194.71 66.5 1206.38 59.5 1221.88 59.5ZM1356.1 188C1336.1 188 1319.77 182 1307.1 170C1294.44 157.833 1288.1 142.25 1288.1 123.25C1288.1 104.917 1293.94 89.75 1305.6 77.75C1317.44 65.5833 1332.77 59.5 1351.6 59.5C1369.77 59.5 1384.19 65.1667 1394.85 76.5C1405.52 87.8333 1410.85 101.75 1410.85 118.25C1410.85 125.417 1409.69 130.833 1407.35 134.5C1405.19 138 1401.19 139.75 1395.35 139.75H1329.1C1333.27 150.083 1343.44 155.25 1359.6 155.25C1369.27 155.25 1377.69 153.333 1384.85 149.5C1386.69 148.667 1388.19 149.167 1389.35 151L1400.85 167C1402.19 169 1401.77 170.917 1399.6 172.75C1389.6 182.917 1375.1 188 1356.1 188ZM1328.35 111H1373.6C1371.44 99.5 1364.19 93.75 1351.85 93.75C1339.19 93.75 1331.35 99.5 1328.35 111Z" fill="#ffffff"/>
</svg>
